<svg width="426" height="32" viewBox="0 0 426 32" fill="none" xmlns="http://www.w3.org/2000/svg">
<path d="M5.28409 27H0.784091L8.97727 3.72727H14.1818L22.3864 27H17.8864L11.6705 8.5H11.4886L5.28409 27ZM5.43182 17.875H17.7045V21.2614H5.43182V17.875ZM28.1619 27L21.5938 3.72727H26.1278L30.321 20.8295H30.5369L35.0142 3.72727H39.1392L43.6278 20.8409H43.8324L48.0256 3.72727H52.5597L45.9915 27H41.8324L37.1733 10.6705H36.9915L32.321 27H28.1619ZM67.9744 10.125C67.8684 9.13258 67.4214 8.35985 66.6335 7.80682C65.8532 7.25379 64.8381 6.97727 63.5881 6.97727C62.7093 6.97727 61.9555 7.10985 61.3267 7.375C60.6979 7.64015 60.2169 8 59.8835 8.45454C59.5502 8.90909 59.3797 9.42803 59.3722 10.0114C59.3722 10.4962 59.482 10.9167 59.7017 11.2727C59.929 11.6288 60.2358 11.9318 60.6222 12.1818C61.0085 12.4242 61.4366 12.6288 61.9062 12.7955C62.3759 12.9621 62.8494 13.1023 63.3267 13.2159L65.5085 13.7614C66.3873 13.9659 67.232 14.2424 68.0426 14.5909C68.8608 14.9394 69.5919 15.3788 70.2358 15.9091C70.8873 16.4394 71.4025 17.0795 71.7812 17.8295C72.16 18.5795 72.3494 19.4583 72.3494 20.4659C72.3494 21.8295 72.0009 23.0303 71.304 24.0682C70.607 25.0985 69.5994 25.9053 68.2812 26.4886C66.9706 27.0644 65.3835 27.3523 63.5199 27.3523C61.7093 27.3523 60.1373 27.072 58.804 26.5114C57.4782 25.9508 56.4403 25.1326 55.6903 24.0568C54.9479 22.9811 54.5464 21.6705 54.4858 20.125H58.6335C58.6941 20.9356 58.9441 21.6098 59.3835 22.1477C59.8229 22.6856 60.3949 23.0871 61.0994 23.3523C61.8116 23.6174 62.607 23.75 63.4858 23.75C64.4025 23.75 65.2055 23.6136 65.8949 23.3409C66.5919 23.0606 67.1373 22.6742 67.5312 22.1818C67.9252 21.6818 68.1259 21.0985 68.1335 20.4318C68.1259 19.8258 67.9479 19.3258 67.5994 18.9318C67.2509 18.5303 66.7623 18.197 66.1335 17.9318C65.5123 17.6591 64.785 17.4167 63.9517 17.2045L61.304 16.5227C59.3873 16.0303 57.8722 15.2841 56.7585 14.2841C55.6525 13.2765 55.0994 11.9394 55.0994 10.2727C55.0994 8.90151 55.4706 7.70076 56.2131 6.67045C56.9631 5.64015 57.982 4.84091 59.2699 4.27273C60.5578 3.69697 62.0161 3.40909 63.6449 3.40909C65.2964 3.40909 66.7434 3.69697 67.9858 4.27273C69.2358 4.84091 70.2169 5.63258 70.929 6.64773C71.6411 7.6553 72.0085 8.81439 72.0312 10.125H67.9744ZM76.9489 15.3636C76.9489 12.5227 77.3239 9.91288 78.0739 7.53409C78.8314 5.14773 79.9564 2.94318 81.4489 0.920454H85.3239C84.7481 1.67045 84.2102 2.59091 83.7102 3.68182C83.2102 4.76515 82.7746 5.95455 82.4034 7.25C82.0398 8.53788 81.7519 9.875 81.5398 11.2614C81.3352 12.6477 81.233 14.0152 81.233 15.3636C81.233 17.1591 81.411 18.9773 81.767 20.8182C82.1307 22.6591 82.6193 24.3674 83.233 25.9432C83.8542 27.5114 84.5511 28.7955 85.3239 29.7955H81.4489C79.9564 27.7727 78.8314 25.572 78.0739 23.1932C77.3239 20.8068 76.9489 18.197 76.9489 15.3636ZM91.6903 27H87.1903L95.3835 3.72727H100.588L108.793 27H104.293L98.0767 8.5H97.8949L91.6903 27ZM91.8381 17.875H104.111V21.2614H91.8381V17.875ZM111.676 27V9.54545H115.608V12.5114H115.812C116.176 11.5114 116.778 10.7311 117.619 10.1705C118.46 9.60227 119.464 9.31818 120.631 9.31818C121.812 9.31818 122.809 9.60606 123.619 10.1818C124.438 10.75 125.013 11.5265 125.347 12.5114H125.528C125.915 11.5417 126.566 10.7689 127.483 10.1932C128.407 9.60985 129.502 9.31818 130.767 9.31818C132.373 9.31818 133.684 9.82576 134.699 10.8409C135.714 11.8561 136.222 13.3371 136.222 15.2841V27H132.097V15.9205C132.097 14.8371 131.809 14.0455 131.233 13.5455C130.657 13.0379 129.953 12.7841 129.119 12.7841C128.127 12.7841 127.35 13.0947 126.79 13.7159C126.237 14.3295 125.96 15.1288 125.96 16.1136V27H121.926V15.75C121.926 14.8485 121.653 14.1288 121.108 13.5909C120.57 13.053 119.866 12.7841 118.994 12.7841C118.403 12.7841 117.866 12.9356 117.381 13.2386C116.896 13.5341 116.509 13.9545 116.222 14.5C115.934 15.0379 115.79 15.6667 115.79 16.3864V27H111.676ZM145.418 27.3523C144.312 27.3523 143.315 27.1553 142.429 26.7614C141.55 26.3598 140.853 25.7689 140.338 24.9886C139.83 24.2083 139.577 23.2462 139.577 22.1023C139.577 21.1174 139.759 20.303 140.122 19.6591C140.486 19.0152 140.982 18.5 141.611 18.1136C142.24 17.7273 142.948 17.4356 143.736 17.2386C144.531 17.0341 145.353 16.8864 146.202 16.7955C147.224 16.6894 148.054 16.5947 148.69 16.5114C149.327 16.4205 149.789 16.2841 150.077 16.1023C150.372 15.9129 150.52 15.6212 150.52 15.2273V15.1591C150.52 14.303 150.266 13.6402 149.759 13.1705C149.251 12.7008 148.52 12.4659 147.565 12.4659C146.558 12.4659 145.759 12.6856 145.168 13.125C144.584 13.5644 144.19 14.0833 143.986 14.6818L140.145 14.1364C140.448 13.0758 140.948 12.1894 141.645 11.4773C142.342 10.7576 143.194 10.2197 144.202 9.86364C145.209 9.5 146.323 9.31818 147.543 9.31818C148.384 9.31818 149.221 9.41667 150.054 9.61364C150.887 9.81061 151.649 10.1364 152.338 10.5909C153.027 11.0379 153.58 11.6477 153.997 12.4205C154.421 13.1932 154.634 14.1591 154.634 15.3182V27H150.679V24.6023H150.543C150.293 25.0871 149.94 25.5417 149.486 25.9659C149.039 26.3826 148.474 26.7197 147.793 26.9773C147.118 27.2273 146.327 27.3523 145.418 27.3523ZM146.486 24.3295C147.312 24.3295 148.027 24.1667 148.634 23.8409C149.24 23.5076 149.705 23.0682 150.031 22.5227C150.365 21.9773 150.531 21.3826 150.531 20.7386V18.6818C150.402 18.7879 150.183 18.8864 149.872 18.9773C149.569 19.0682 149.228 19.1477 148.849 19.2159C148.471 19.2841 148.096 19.3447 147.724 19.3977C147.353 19.4508 147.031 19.4962 146.759 19.5341C146.145 19.6174 145.596 19.7538 145.111 19.9432C144.626 20.1326 144.243 20.3977 143.963 20.7386C143.683 21.072 143.543 21.5038 143.543 22.0341C143.543 22.7917 143.819 23.3636 144.372 23.75C144.925 24.1364 145.63 24.3295 146.486 24.3295ZM158.543 27V24.3864L167.543 13.1023V12.9545H158.838V9.54545H172.577V12.3523L164.009 23.4432V23.5909H172.872V27H158.543ZM183.852 27.3409C182.148 27.3409 180.67 26.9659 179.42 26.2159C178.17 25.4659 177.201 24.4167 176.511 23.0682C175.83 21.7197 175.489 20.1439 175.489 18.3409C175.489 16.5379 175.83 14.9583 176.511 13.6023C177.201 12.2462 178.17 11.1932 179.42 10.4432C180.67 9.69318 182.148 9.31818 183.852 9.31818C185.557 9.31818 187.034 9.69318 188.284 10.4432C189.534 11.1932 190.5 12.2462 191.182 13.6023C191.871 14.9583 192.216 16.5379 192.216 18.3409C192.216 20.1439 191.871 21.7197 191.182 23.0682C190.5 24.4167 189.534 25.4659 188.284 26.2159C187.034 26.9659 185.557 27.3409 183.852 27.3409ZM183.875 24.0455C184.799 24.0455 185.572 23.7917 186.193 23.2841C186.814 22.7689 187.277 22.0795 187.58 21.2159C187.89 20.3523 188.045 19.3902 188.045 18.3295C188.045 17.2614 187.89 16.2955 187.58 15.4318C187.277 14.5606 186.814 13.8674 186.193 13.3523C185.572 12.8371 184.799 12.5795 183.875 12.5795C182.928 12.5795 182.14 12.8371 181.511 13.3523C180.89 13.8674 180.424 14.5606 180.114 15.4318C179.811 16.2955 179.659 17.2614 179.659 18.3295C179.659 19.3902 179.811 20.3523 180.114 21.2159C180.424 22.0795 180.89 22.7689 181.511 23.2841C182.14 23.7917 182.928 24.0455 183.875 24.0455ZM199.821 16.7727V27H195.707V9.54545H199.639V12.5114H199.844C200.245 11.5341 200.885 10.7576 201.764 10.1818C202.651 9.60606 203.745 9.31818 205.048 9.31818C206.253 9.31818 207.302 9.57576 208.196 10.0909C209.098 10.6061 209.795 11.3523 210.287 12.3295C210.787 13.3068 211.033 14.4924 211.026 15.8864V27H206.912V16.5227C206.912 15.3561 206.609 14.4432 206.003 13.7841C205.404 13.125 204.575 12.7955 203.514 12.7955C202.795 12.7955 202.154 12.9545 201.594 13.2727C201.041 13.5833 200.605 14.0341 200.287 14.625C199.976 15.2159 199.821 15.9318 199.821 16.7727ZM228.224 27L221.656 3.72727H226.19L230.384 20.8295H230.599L235.077 3.72727H239.202L243.69 20.8409H243.895L248.088 3.72727H252.622L246.054 27H241.895L237.236 10.6705H237.054L232.384 27H228.224ZM261.31 27.3409C259.56 27.3409 258.048 26.9773 256.776 26.25C255.51 25.5152 254.537 24.4773 253.855 23.1364C253.173 21.7879 252.832 20.2008 252.832 18.375C252.832 16.5795 253.173 15.0038 253.855 13.6477C254.545 12.2841 255.507 11.2235 256.741 10.4659C257.976 9.70076 259.427 9.31818 261.094 9.31818C262.17 9.31818 263.185 9.49242 264.139 9.84091C265.101 10.1818 265.95 10.7121 266.685 11.4318C267.427 12.1515 268.01 13.0682 268.435 14.1818C268.859 15.2879 269.071 16.6061 269.071 18.1364V19.3977H254.764V16.625H265.128C265.12 15.8371 264.95 15.1364 264.616 14.5227C264.283 13.9015 263.817 13.4129 263.219 13.0568C262.628 12.7008 261.938 12.5227 261.151 12.5227C260.31 12.5227 259.571 12.7273 258.935 13.1364C258.298 13.5379 257.802 14.0682 257.446 14.7273C257.098 15.3788 256.92 16.0947 256.912 16.875V19.2955C256.912 20.3106 257.098 21.1818 257.469 21.9091C257.84 22.6288 258.359 23.1818 259.026 23.5682C259.692 23.947 260.473 24.1364 261.366 24.1364C261.965 24.1364 262.507 24.053 262.991 23.8864C263.476 23.7121 263.897 23.4583 264.253 23.125C264.609 22.7917 264.878 22.3788 265.06 21.8864L268.901 22.3182C268.658 23.3333 268.196 24.2197 267.514 24.9773C266.84 25.7273 265.976 26.3106 264.923 26.7273C263.87 27.1364 262.666 27.3409 261.31 27.3409ZM272.733 27V3.72727H276.847V12.4318H277.017C277.229 12.0076 277.528 11.5568 277.915 11.0795C278.301 10.5947 278.824 10.1818 279.483 9.84091C280.142 9.49242 280.983 9.31818 282.006 9.31818C283.354 9.31818 284.57 9.66288 285.653 10.3523C286.744 11.0341 287.608 12.0455 288.244 13.3864C288.888 14.7197 289.21 16.3561 289.21 18.2955C289.21 20.2121 288.896 21.8409 288.267 23.1818C287.638 24.5227 286.782 25.5455 285.699 26.25C284.616 26.9545 283.388 27.3068 282.017 27.3068C281.017 27.3068 280.188 27.1402 279.528 26.8068C278.869 26.4735 278.339 26.072 277.938 25.6023C277.544 25.125 277.237 24.6742 277.017 24.25H276.778V27H272.733ZM276.767 18.2727C276.767 19.4015 276.926 20.3902 277.244 21.2386C277.57 22.0871 278.036 22.75 278.642 23.2273C279.256 23.697 279.998 23.9318 280.869 23.9318C281.778 23.9318 282.54 23.6894 283.153 23.2045C283.767 22.7121 284.229 22.0417 284.54 21.1932C284.858 20.3371 285.017 19.3636 285.017 18.2727C285.017 17.1894 284.862 16.2273 284.551 15.3864C284.241 14.5455 283.778 13.8864 283.165 13.4091C282.551 12.9318 281.786 12.6932 280.869 12.6932C279.991 12.6932 279.244 12.9242 278.631 13.3864C278.017 13.8485 277.551 14.4962 277.233 15.3295C276.922 16.1629 276.767 17.1439 276.767 18.2727ZM313.474 10.125C313.368 9.13258 312.921 8.35985 312.134 7.80682C311.353 7.25379 310.338 6.97727 309.088 6.97727C308.209 6.97727 307.455 7.10985 306.827 7.375C306.198 7.64015 305.717 8 305.384 8.45454C305.05 8.90909 304.88 9.42803 304.872 10.0114C304.872 10.4962 304.982 10.9167 305.202 11.2727C305.429 11.6288 305.736 11.9318 306.122 12.1818C306.509 12.4242 306.937 12.6288 307.406 12.7955C307.876 12.9621 308.349 13.1023 308.827 13.2159L311.009 13.7614C311.887 13.9659 312.732 14.2424 313.543 14.5909C314.361 14.9394 315.092 15.3788 315.736 15.9091C316.387 16.4394 316.902 17.0795 317.281 17.8295C317.66 18.5795 317.849 19.4583 317.849 20.4659C317.849 21.8295 317.501 23.0303 316.804 24.0682C316.107 25.0985 315.099 25.9053 313.781 26.4886C312.471 27.0644 310.884 27.3523 309.02 27.3523C307.209 27.3523 305.637 27.072 304.304 26.5114C302.978 25.9508 301.94 25.1326 301.19 24.0568C300.448 22.9811 300.046 21.6705 299.986 20.125H304.134C304.194 20.9356 304.444 21.6098 304.884 22.1477C305.323 22.6856 305.895 23.0871 306.599 23.3523C307.312 23.6174 308.107 23.75 308.986 23.75C309.902 23.75 310.705 23.6136 311.395 23.3409C312.092 23.0606 312.637 22.6742 313.031 22.1818C313.425 21.6818 313.626 21.0985 313.634 20.4318C313.626 19.8258 313.448 19.3258 313.099 18.9318C312.751 18.5303 312.262 18.197 311.634 17.9318C311.012 17.6591 310.285 17.4167 309.452 17.2045L306.804 16.5227C304.887 16.0303 303.372 15.2841 302.259 14.2841C301.152 13.2765 300.599 11.9394 300.599 10.2727C300.599 8.90151 300.971 7.70076 301.713 6.67045C302.463 5.64015 303.482 4.84091 304.77 4.27273C306.058 3.69697 307.516 3.40909 309.145 3.40909C310.796 3.40909 312.243 3.69697 313.486 4.27273C314.736 4.84091 315.717 5.63258 316.429 6.64773C317.141 7.6553 317.509 8.81439 317.531 10.125H313.474ZM329.153 27.3409C327.403 27.3409 325.892 26.9773 324.619 26.25C323.354 25.5152 322.381 24.4773 321.699 23.1364C321.017 21.7879 320.676 20.2008 320.676 18.375C320.676 16.5795 321.017 15.0038 321.699 13.6477C322.388 12.2841 323.35 11.2235 324.585 10.4659C325.82 9.70076 327.271 9.31818 328.938 9.31818C330.013 9.31818 331.028 9.49242 331.983 9.84091C332.945 10.1818 333.794 10.7121 334.528 11.4318C335.271 12.1515 335.854 13.0682 336.278 14.1818C336.703 15.2879 336.915 16.6061 336.915 18.1364V19.3977H322.608V16.625H332.972C332.964 15.8371 332.794 15.1364 332.46 14.5227C332.127 13.9015 331.661 13.4129 331.062 13.0568C330.472 12.7008 329.782 12.5227 328.994 12.5227C328.153 12.5227 327.415 12.7273 326.778 13.1364C326.142 13.5379 325.646 14.0682 325.29 14.7273C324.941 15.3788 324.763 16.0947 324.756 16.875V19.2955C324.756 20.3106 324.941 21.1818 325.312 21.9091C325.684 22.6288 326.203 23.1818 326.869 23.5682C327.536 23.947 328.316 24.1364 329.21 24.1364C329.809 24.1364 330.35 24.053 330.835 23.8864C331.32 23.7121 331.741 23.4583 332.097 23.125C332.453 22.7917 332.722 22.3788 332.903 21.8864L336.744 22.3182C336.502 23.3333 336.04 24.2197 335.358 24.9773C334.684 25.7273 333.82 26.3106 332.767 26.7273C331.714 27.1364 330.509 27.3409 329.153 27.3409ZM340.395 27V9.54545H344.384V12.4545H344.565C344.884 11.447 345.429 10.6705 346.202 10.125C346.982 9.57197 347.872 9.29545 348.872 9.29545C349.099 9.29545 349.353 9.30682 349.634 9.32954C349.921 9.3447 350.16 9.37121 350.349 9.40909V13.1932C350.175 13.1326 349.899 13.0795 349.52 13.0341C349.149 12.9811 348.789 12.9545 348.44 12.9545C347.69 12.9545 347.016 13.1174 346.418 13.4432C345.827 13.7614 345.361 14.2045 345.02 14.7727C344.679 15.3409 344.509 15.9962 344.509 16.7386V27H340.395ZM369.205 9.54545L362.989 27H358.443L352.227 9.54545H356.614L360.625 22.5114H360.807L364.83 9.54545H369.205ZM372.051 27V9.54545H376.165V27H372.051ZM374.119 7.06818C373.468 7.06818 372.907 6.85227 372.438 6.42045C371.968 5.98106 371.733 5.45454 371.733 4.84091C371.733 4.2197 371.968 3.69318 372.438 3.26136C372.907 2.82197 373.468 2.60227 374.119 2.60227C374.778 2.60227 375.339 2.82197 375.801 3.26136C376.271 3.69318 376.506 4.2197 376.506 4.84091C376.506 5.45454 376.271 5.98106 375.801 6.42045C375.339 6.85227 374.778 7.06818 374.119 7.06818ZM388.009 27.3409C386.266 27.3409 384.77 26.9583 383.52 26.1932C382.277 25.428 381.319 24.3712 380.645 23.0227C379.978 21.6667 379.645 20.1061 379.645 18.3409C379.645 16.5682 379.986 15.0038 380.668 13.6477C381.349 12.2841 382.312 11.2235 383.554 10.4659C384.804 9.70076 386.281 9.31818 387.986 9.31818C389.402 9.31818 390.656 9.57955 391.747 10.1023C392.846 10.6174 393.721 11.3485 394.372 12.2955C395.024 13.2348 395.395 14.3333 395.486 15.5909H391.554C391.395 14.75 391.016 14.0492 390.418 13.4886C389.827 12.9205 389.035 12.6364 388.043 12.6364C387.202 12.6364 386.463 12.8636 385.827 13.3182C385.19 13.7652 384.694 14.4091 384.338 15.25C383.99 16.0909 383.815 17.0985 383.815 18.2727C383.815 19.4621 383.99 20.4848 384.338 21.3409C384.687 22.1894 385.175 22.8447 385.804 23.3068C386.44 23.7614 387.187 23.9886 388.043 23.9886C388.649 23.9886 389.19 23.875 389.668 23.6477C390.152 23.4129 390.558 23.0758 390.884 22.6364C391.209 22.197 391.433 21.6629 391.554 21.0341H395.486C395.387 22.2689 395.024 23.3636 394.395 24.3182C393.766 25.2652 392.91 26.0076 391.827 26.5455C390.743 27.0758 389.471 27.3409 388.009 27.3409ZM406.591 27.3409C404.841 27.3409 403.33 26.9773 402.057 26.25C400.792 25.5152 399.818 24.4773 399.136 23.1364C398.455 21.7879 398.114 20.2008 398.114 18.375C398.114 16.5795 398.455 15.0038 399.136 13.6477C399.826 12.2841 400.788 11.2235 402.023 10.4659C403.258 9.70076 404.708 9.31818 406.375 9.31818C407.451 9.31818 408.466 9.49242 409.42 9.84091C410.383 10.1818 411.231 10.7121 411.966 11.4318C412.708 12.1515 413.292 13.0682 413.716 14.1818C414.14 15.2879 414.352 16.6061 414.352 18.1364V19.3977H400.045V16.625H410.409C410.402 15.8371 410.231 15.1364 409.898 14.5227C409.564 13.9015 409.098 13.4129 408.5 13.0568C407.909 12.7008 407.22 12.5227 406.432 12.5227C405.591 12.5227 404.852 12.7273 404.216 13.1364C403.58 13.5379 403.083 14.0682 402.727 14.7273C402.379 15.3788 402.201 16.0947 402.193 16.875V19.2955C402.193 20.3106 402.379 21.1818 402.75 21.9091C403.121 22.6288 403.64 23.1818 404.307 23.5682C404.973 23.947 405.754 24.1364 406.648 24.1364C407.246 24.1364 407.788 24.053 408.273 23.8864C408.758 23.7121 409.178 23.4583 409.534 23.125C409.89 22.7917 410.159 22.3788 410.341 21.8864L414.182 22.3182C413.939 23.3333 413.477 24.2197 412.795 24.9773C412.121 25.7273 411.258 26.3106 410.205 26.7273C409.152 27.1364 407.947 27.3409 406.591 27.3409ZM425.173 17.5114C425.173 20.3447 424.795 22.9545 424.037 25.3409C423.287 27.7197 422.166 29.9205 420.673 31.9432H416.798C417.382 31.1932 417.92 30.2765 418.412 29.1932C418.912 28.1098 419.344 26.9205 419.707 25.625C420.079 24.3295 420.366 22.9886 420.571 21.6023C420.783 20.2159 420.889 18.8523 420.889 17.5114C420.889 15.7159 420.707 13.8977 420.344 12.0568C419.988 10.2159 419.499 8.50758 418.878 6.93182C418.264 5.35606 417.571 4.06818 416.798 3.06818H420.673C422.166 5.09091 423.287 7.29545 424.037 9.68182C424.795 12.0606 425.173 14.6705 425.173 17.5114Z" fill="#FF0303"/>
</svg>
