<svg width="133" height="114" viewBox="0 0 133 114" fill="none" xmlns="http://www.w3.org/2000/svg">
<path d="M4.00354 14.3295C3.43062 14.3295 2.90742 14.1899 2.43394 13.9105C1.96045 13.6264 1.58167 13.2476 1.29758 12.7741C1.01822 12.3007 0.87854 11.7775 0.87854 11.2045C0.87854 10.6269 1.01822 10.1037 1.29758 9.63493C1.58167 9.16145 1.96045 8.78503 2.43394 8.50567C2.90742 8.22158 3.43062 8.07954 4.00354 8.07954C4.58119 8.07954 5.10439 8.22158 5.57314 8.50567C6.04663 8.78503 6.42305 9.16145 6.7024 9.63493C6.9865 10.1037 7.12854 10.6269 7.12854 11.2045C7.12854 11.7775 6.9865 12.3007 6.7024 12.7741C6.42305 13.2476 6.04663 13.6264 5.57314 13.9105C5.10439 14.1899 4.58119 14.3295 4.00354 14.3295ZM21.86 0.89999H33.6V2.97999H21.86V0.89999ZM32 0.89999H34.62V2.53999C34.62 4.15999 34.62 5.89999 34.14 8.07999L31.52 7.83999C32 5.69999 32 4.13999 32 2.53999V0.89999ZM32.8 4.01999V5.83999L21.64 6.27999L21.34 4.25999L32.8 4.01999ZM19.84 7.39999H36.52V9.47999H19.84V7.39999ZM21.64 10.56H34.72V15.46H24.3V17.46H21.66V13.58H32.08V12.56H21.64V10.56ZM21.66 16.56H35.34V18.58H21.66V16.56ZM50.0784 0.23999H52.7184V18.82H50.0784V0.23999ZM52.1184 7.23999H55.3984V9.43999H52.1184V7.23999ZM38.9584 12.34H40.5184C43.6584 12.34 46.0984 12.24 48.8184 11.76L49.0784 13.9C46.2784 14.4 43.7384 14.52 40.5184 14.52H38.9584V12.34ZM38.9384 1.81999H47.4584V8.99999H41.5984V13.16H38.9584V6.87999H44.8184V3.93999H38.9384V1.81999ZM56.5969 10.62H73.3769V12.76H56.5969V10.62ZM63.5969 12H66.2369V18.8H63.5969V12ZM64.9369 0.87999C68.8969 0.87999 71.6369 2.51999 71.6369 5.05999C71.6369 7.57999 68.8969 9.19999 64.9369 9.19999C60.9969 9.19999 58.2569 7.57999 58.2569 5.05999C58.2569 2.51999 60.9969 0.87999 64.9369 0.87999ZM64.9369 2.99999C62.5169 2.99999 60.9769 3.71999 60.9769 5.05999C60.9769 6.37999 62.5169 7.09999 64.9369 7.09999C67.3769 7.09999 68.8969 6.37999 68.8969 5.05999C68.8969 3.71999 67.3769 2.99999 64.9369 2.99999ZM76.9553 8.79999H89.9753V10.92H76.9553V8.79999ZM75.0153 14.38H91.7753V16.56H75.0153V14.38ZM76.9553 1.77999H89.8353V3.93999H79.5953V9.67999H76.9553V1.77999ZM111.675 0.259991H114.215V18.78H111.675V0.259991ZM109.335 7.23999H112.395V9.35999H109.335V7.23999ZM103.815 2.51999H106.355C106.355 7.73999 104.835 11.96 99.6547 14.98L98.1147 13.14C102.335 10.64 103.815 7.51999 103.815 3.07999V2.51999ZM99.0547 2.51999H104.595V4.65999H99.0547V2.51999ZM107.575 0.739991H110.055V17.98H107.575V0.739991ZM117.833 1.05999H120.473V8.89999H117.833V1.05999ZM117.833 8.51999H119.273C121.973 8.51999 124.213 8.41999 126.713 7.99999L127.013 10.1C124.413 10.58 122.073 10.66 119.273 10.66H117.833V8.51999ZM129.593 0.259991H132.253V11.08H129.593V0.259991ZM125.193 1.89999H130.253V3.91999H125.193V1.89999ZM125.193 5.15999H130.253V7.15999H125.193V5.15999ZM119.993 11.86H132.253V18.58H119.993V11.86ZM129.633 13.94H122.613V16.48H129.633V13.94ZM4.00354 38.3295C3.43062 38.3295 2.90742 38.1899 2.43394 37.9105C1.96045 37.6264 1.58167 37.2476 1.29758 36.7741C1.01822 36.3007 0.87854 35.7775 0.87854 35.2045C0.87854 34.6269 1.01822 34.1037 1.29758 33.6349C1.58167 33.1615 1.96045 32.785 2.43394 32.5057C2.90742 32.2216 3.43062 32.0795 4.00354 32.0795C4.58119 32.0795 5.10439 32.2216 5.57314 32.5057C6.04663 32.785 6.42305 33.1615 6.7024 33.6349C6.9865 34.1037 7.12854 34.6269 7.12854 35.2045C7.12854 35.7775 6.9865 36.3007 6.7024 36.7741C6.42305 37.2476 6.04663 37.6264 5.57314 37.9105C5.10439 38.1899 4.58119 38.3295 4.00354 38.3295ZM32.56 24.24H35.22V42.82H32.56V24.24ZM20.8 36.34H22.44C25.72 36.34 28.34 36.22 31.28 35.72L31.54 37.86C28.54 38.4 25.82 38.5 22.44 38.5H20.8V36.34ZM20.78 25.82H29.52V32.98H23.5V37.14H20.8V30.88H26.8V27.94H20.78V25.82ZM45.2384 33.74H47.8984V37.4H45.2384V33.74ZM40.2784 28.8H53.1184V30.92H40.2784V28.8ZM40.2784 24.52H42.9184V29.78H40.2784V24.52ZM38.2184 32.38H54.9784V34.5H38.2184V32.38ZM40.0784 36.44H52.9184V42.84H50.2584V38.58H40.0784V36.44ZM63.4769 25.32H65.7969V26.66C65.7969 30.68 62.9369 34.24 58.1369 35.18L56.9969 32.98C61.1769 32.26 63.4769 29.32 63.4769 26.66V25.32ZM64.0169 25.32H66.3169V26.66C66.3169 29.38 68.5969 32.26 72.7969 32.98L71.6569 35.18C66.8569 34.24 64.0169 30.74 64.0169 26.66V25.32ZM56.6169 38.36H73.3769V40.52H56.6169V38.36ZM88.9163 26.94H93.6363V29.04H88.9163V26.94ZM88.9163 30.64H93.7163V32.76H88.9163V30.64ZM92.7963 24.26H95.4563V35.1H92.7963V24.26ZM80.7163 25.6H89.4763V34.1H80.7163V25.6ZM86.8563 27.7H83.3363V32.02H86.8563V27.7ZM89.1763 35.58C93.0963 35.58 95.5163 36.92 95.5163 39.18C95.5163 41.46 93.0963 42.78 89.1763 42.78C85.2563 42.78 82.8363 41.46 82.8363 39.18C82.8363 36.92 85.2563 35.58 89.1763 35.58ZM89.1763 37.62C86.7763 37.62 85.4963 38.12 85.4963 39.18C85.4963 40.24 86.7763 40.76 89.1763 40.76C91.5963 40.76 92.8763 40.24 92.8763 39.18C92.8763 38.12 91.5963 37.62 89.1763 37.62ZM99.0547 32.82H100.475C103.915 32.82 105.715 32.76 107.815 32.4L108.075 34.5C105.915 34.9 104.015 34.96 100.475 34.96H99.0547V32.82ZM99.0347 25.22H107.175V30.98H101.695V34.4H99.0547V29.02H104.535V27.34H99.0347V25.22ZM111.195 24.28H113.855V35.52H111.195V24.28ZM108.235 26.72H111.695V28.84H108.235V26.72ZM108.235 30.56H111.695V32.68H108.235V30.56ZM107.595 35.84C111.535 35.84 113.935 37.12 113.935 39.34C113.935 41.56 111.535 42.84 107.595 42.84C103.655 42.84 101.255 41.56 101.255 39.34C101.255 37.12 103.655 35.84 107.595 35.84ZM107.595 37.84C105.175 37.84 103.915 38.32 103.915 39.34C103.915 40.36 105.175 40.84 107.595 40.84C110.035 40.84 111.295 40.36 111.295 39.34C111.295 38.32 110.035 37.84 107.595 37.84ZM121.833 25.54C124.593 25.54 126.613 28.1 126.613 32.14C126.613 36.22 124.593 38.78 121.833 38.78C119.053 38.78 117.053 36.22 117.053 32.14C117.053 28.1 119.053 25.54 121.833 25.54ZM121.833 27.96C120.493 27.96 119.593 29.42 119.593 32.14C119.593 34.9 120.493 36.38 121.833 36.38C123.193 36.38 124.073 34.9 124.073 32.14C124.073 29.42 123.193 27.96 121.833 27.96ZM129.653 24.24H132.293V42.82H129.653V24.24ZM125.833 30.92H130.773V33.06H125.833V30.92ZM4.00354 62.3295C3.43062 62.3295 2.90742 62.1899 2.43394 61.9105C1.96045 61.6264 1.58167 61.2476 1.29758 60.7741C1.01822 60.3007 0.87854 59.7775 0.87854 59.2045C0.87854 58.6269 1.01822 58.1037 1.29758 57.6349C1.58167 57.1615 1.96045 56.785 2.43394 56.5057C2.90742 56.2216 3.43062 56.0795 4.00354 56.0795C4.58119 56.0795 5.10439 56.2216 5.57314 56.5057C6.04663 56.785 6.42305 57.1615 6.7024 57.6349C6.9865 58.1037 7.12854 58.6269 7.12854 59.2045C7.12854 59.7775 6.9865 60.3007 6.7024 60.7741C6.42305 61.2476 6.04663 61.6264 5.57314 61.9105C5.10439 62.1899 4.58119 62.3295 4.00354 62.3295ZM25.3636 65H20.4347V50.4545H25.4631C26.9072 50.4545 28.1477 50.7457 29.1847 51.3281C30.2263 51.9058 31.0265 52.7367 31.5852 53.821C32.1439 54.9053 32.4233 56.2027 32.4233 57.7131C32.4233 59.2282 32.1416 60.5303 31.5781 61.6193C31.0194 62.7083 30.2121 63.544 29.1562 64.1264C28.1051 64.7088 26.8409 65 25.3636 65ZM23.0696 62.7202H25.2358C26.2491 62.7202 27.0942 62.5355 27.7713 62.1662C28.4484 61.7921 28.9574 61.2358 29.2983 60.4972C29.6392 59.7538 29.8097 58.8258 29.8097 57.7131C29.8097 56.6004 29.6392 55.6771 29.2983 54.9432C28.9574 54.2045 28.4531 53.6529 27.7855 53.2884C27.1226 52.919 26.2988 52.7344 25.3139 52.7344H23.0696V62.7202ZM47.924 57.7273C47.924 59.2945 47.6304 60.6368 47.0433 61.7543C46.4609 62.867 45.6655 63.7192 44.657 64.3111C43.6532 64.9029 42.5144 65.1989 41.2408 65.1989C39.9671 65.1989 38.826 64.9029 37.8175 64.3111C36.8137 63.7145 36.0182 62.8598 35.4311 61.7472C34.8487 60.6297 34.5575 59.2898 34.5575 57.7273C34.5575 56.16 34.8487 54.8201 35.4311 53.7074C36.0182 52.59 36.8137 51.7353 37.8175 51.1435C38.826 50.5516 39.9671 50.2557 41.2408 50.2557C42.5144 50.2557 43.6532 50.5516 44.657 51.1435C45.6655 51.7353 46.4609 52.59 47.0433 53.7074C47.6304 54.8201 47.924 56.16 47.924 57.7273ZM45.2749 57.7273C45.2749 56.6241 45.102 55.6937 44.7564 54.9361C44.4155 54.1738 43.942 53.5985 43.3359 53.2102C42.7299 52.8172 42.0315 52.6207 41.2408 52.6207C40.45 52.6207 39.7517 52.8172 39.1456 53.2102C38.5395 53.5985 38.0637 54.1738 37.718 54.9361C37.3771 55.6937 37.2067 56.6241 37.2067 57.7273C37.2067 58.8305 37.3771 59.7633 37.718 60.5256C38.0637 61.2831 38.5395 61.8584 39.1456 62.2514C39.7517 62.6397 40.45 62.8338 41.2408 62.8338C42.0315 62.8338 42.7299 62.6397 43.3359 62.2514C43.942 61.8584 44.4155 61.2831 44.7564 60.5256C45.102 59.7633 45.2749 58.8305 45.2749 57.7273ZM62.8654 55.3622H60.2092C60.1334 54.9266 59.9937 54.5407 59.7901 54.2045C59.5865 53.8636 59.3332 53.5748 59.0302 53.3381C58.7272 53.1013 58.3815 52.9238 57.9933 52.8054C57.6097 52.6823 57.1954 52.6207 56.7504 52.6207C55.9596 52.6207 55.2589 52.8196 54.6481 53.2173C54.0373 53.6103 53.5591 54.188 53.2134 54.9503C52.8678 55.7079 52.695 56.6335 52.695 57.7273C52.695 58.84 52.8678 59.7775 53.2134 60.5398C53.5638 61.2973 54.042 61.8703 54.6481 62.2585C55.2589 62.642 55.9573 62.8338 56.7433 62.8338C57.1789 62.8338 57.5861 62.777 57.9648 62.6634C58.3484 62.545 58.6916 62.3722 58.9947 62.1449C59.3024 61.9176 59.5605 61.6383 59.7688 61.3068C59.9819 60.9754 60.1287 60.5966 60.2092 60.1705L62.8654 60.1847C62.766 60.8759 62.5505 61.5246 62.2191 62.1307C61.8924 62.7367 61.4639 63.2718 60.9336 63.7358C60.4033 64.1951 59.783 64.5549 59.0728 64.8153C58.3626 65.071 57.5742 65.1989 56.7077 65.1989C55.4293 65.1989 54.2882 64.9029 53.2844 64.3111C52.2807 63.7192 51.4899 62.8646 50.9123 61.7472C50.3346 60.6297 50.0458 59.2898 50.0458 57.7273C50.0458 56.16 50.337 54.8201 50.9194 53.7074C51.5018 52.59 52.2949 51.7353 53.2987 51.1435C54.3024 50.5516 55.4388 50.2557 56.7077 50.2557C57.5174 50.2557 58.2702 50.3693 58.9663 50.5966C59.6623 50.8239 60.2826 51.1577 60.8271 51.598C61.3716 52.0336 61.819 52.5687 62.1694 53.2031C62.5245 53.8329 62.7565 54.5526 62.8654 55.3622ZM65.2784 65V50.4545H67.9134V57.1378H68.0909L73.7656 50.4545H76.983L71.358 56.9815L77.0327 65H73.8651L69.5256 58.7642L67.9134 60.6676V65H65.2784ZM78.8136 65V50.4545H88.2738V52.6634H81.4485V56.6122H87.7837V58.821H81.4485V62.7912H88.3306V65H78.8136ZM90.962 65V50.4545H96.4165C97.534 50.4545 98.4715 50.6487 99.229 51.0369C99.9914 51.4252 100.567 51.9697 100.955 52.6705C101.348 53.3665 101.544 54.1785 101.544 55.1065C101.544 56.0393 101.346 56.849 100.948 57.5355C100.555 58.2173 99.9748 58.7453 99.2077 59.1193C98.4407 59.4886 97.4985 59.6733 96.381 59.6733H92.4961V57.4858H96.0259C96.6793 57.4858 97.2144 57.3958 97.631 57.2159C98.0477 57.0312 98.3555 56.7637 98.5543 56.4134C98.7579 56.0582 98.8597 55.6226 98.8597 55.1065C98.8597 54.5904 98.7579 54.1501 98.5543 53.7855C98.3507 53.4162 98.0406 53.1368 97.6239 52.9474C97.2073 52.7533 96.6699 52.6562 96.0117 52.6562H93.5969V65H90.962ZM98.4762 58.4091L102.077 65H99.1367L95.5998 58.4091H98.4762ZM4.00354 86.3295C3.43062 86.3295 2.90742 86.1899 2.43394 85.9105C1.96045 85.6264 1.58167 85.2476 1.29758 84.7741C1.01822 84.3007 0.87854 83.7775 0.87854 83.2045C0.87854 82.6269 1.01822 82.1037 1.29758 81.6349C1.58167 81.1615 1.96045 80.785 2.43394 80.5057C2.90742 80.2216 3.43062 80.0795 4.00354 80.0795C4.58119 80.0795 5.10439 80.2216 5.57314 80.5057C6.04663 80.785 6.42305 81.1615 6.7024 81.6349C6.9865 82.1037 7.12854 82.6269 7.12854 83.2045C7.12854 83.7775 6.9865 84.3007 6.7024 84.7741C6.42305 85.2476 6.04663 85.6264 5.57314 85.9105C5.10439 86.1899 4.58119 86.3295 4.00354 86.3295ZM28.3395 78.4531C28.2732 77.8329 27.9938 77.3499 27.5014 77.0043C27.0137 76.6586 26.3793 76.4858 25.598 76.4858C25.0488 76.4858 24.5777 76.5687 24.1847 76.7344C23.7917 76.9001 23.491 77.125 23.2827 77.4091C23.0743 77.6932 22.9678 78.0175 22.9631 78.3821C22.9631 78.6851 23.0317 78.9479 23.169 79.1705C23.3111 79.393 23.5028 79.5824 23.7443 79.7386C23.9858 79.8902 24.2533 80.018 24.5469 80.1222C24.8404 80.2263 25.1364 80.3139 25.4347 80.3849L26.7983 80.7259C27.3475 80.8537 27.8755 81.0265 28.3821 81.2443C28.8935 81.4621 29.3504 81.7367 29.7528 82.0682C30.16 82.3996 30.482 82.7997 30.7188 83.2685C30.9555 83.7372 31.0739 84.2865 31.0739 84.9162C31.0739 85.7685 30.8561 86.5189 30.4205 87.1676C29.9848 87.8116 29.3551 88.3158 28.5312 88.6804C27.7121 89.0402 26.7202 89.2202 25.5554 89.2202C24.4238 89.2202 23.4413 89.045 22.608 88.6946C21.7794 88.3442 21.1307 87.8329 20.6619 87.1605C20.1979 86.4882 19.947 85.669 19.9091 84.7031H22.5014C22.5393 85.2098 22.6955 85.6312 22.9702 85.9673C23.2448 86.3035 23.6023 86.5545 24.0426 86.7202C24.4877 86.8859 24.9848 86.9688 25.5341 86.9688C26.107 86.9688 26.6089 86.8835 27.0398 86.7131C27.4754 86.5379 27.8163 86.2964 28.0625 85.9886C28.3087 85.6761 28.4342 85.3116 28.4389 84.8949C28.4342 84.5161 28.3229 84.2036 28.1051 83.9574C27.8873 83.7064 27.5819 83.4981 27.1889 83.3324C26.8007 83.1619 26.3461 83.0104 25.8253 82.8778L24.1705 82.4517C22.9725 82.1439 22.0256 81.6776 21.3295 81.0526C20.6383 80.4228 20.2926 79.5871 20.2926 78.5455C20.2926 77.6884 20.5246 76.938 20.9886 76.294C21.4574 75.6501 22.0942 75.1506 22.8991 74.7955C23.7041 74.4356 24.6155 74.2557 25.6335 74.2557C26.6657 74.2557 27.5701 74.4356 28.3466 74.7955C29.1278 75.1506 29.741 75.6454 30.1861 76.2798C30.6312 76.9096 30.8608 77.634 30.875 78.4531H28.3395ZM38.5011 89.1989C37.4783 89.1989 36.5692 89.0237 35.7738 88.6733C34.9831 88.3229 34.3581 87.8352 33.8988 87.2102C33.4395 86.5852 33.1957 85.8632 33.1673 85.044H35.8377C35.8614 85.437 35.9916 85.7803 36.2283 86.0739C36.4651 86.3627 36.7799 86.5876 37.1729 86.7486C37.5659 86.9096 38.0063 86.9901 38.494 86.9901C39.0148 86.9901 39.4764 86.9001 39.8789 86.7202C40.2814 86.5355 40.5962 86.2798 40.8235 85.9531C41.0508 85.6264 41.1621 85.25 41.1573 84.8239C41.1621 84.3835 41.0484 83.9953 40.8164 83.6591C40.5844 83.3229 40.2482 83.0601 39.8079 82.8707C39.3723 82.6813 38.8467 82.5866 38.2312 82.5866H36.9457V80.5554H38.2312C38.7378 80.5554 39.1805 80.4678 39.5593 80.2926C39.9428 80.1174 40.2435 79.8712 40.4613 79.554C40.6791 79.232 40.7856 78.8603 40.7809 78.4389C40.7856 78.027 40.6933 77.6695 40.5039 77.3665C40.3192 77.0587 40.0565 76.8196 39.7156 76.6491C39.3794 76.4787 38.984 76.3935 38.5295 76.3935C38.0844 76.3935 37.6725 76.474 37.2937 76.6349C36.9149 76.7959 36.6095 77.0256 36.3775 77.3239C36.1455 77.6174 36.0224 77.9678 36.0082 78.375H33.4727C33.4916 77.5606 33.726 76.8456 34.1758 76.2301C34.6303 75.6098 35.2364 75.1269 35.994 74.7812C36.7515 74.4309 37.6014 74.2557 38.5437 74.2557C39.5143 74.2557 40.3571 74.438 41.0721 74.8026C41.7918 75.1624 42.3481 75.6477 42.7411 76.2585C43.1341 76.8693 43.3306 77.544 43.3306 78.2827C43.3353 79.1018 43.0939 79.7884 42.6062 80.3423C42.1232 80.8963 41.4888 81.2585 40.7028 81.429V81.5426C41.7255 81.6847 42.5091 82.0634 43.0536 82.679C43.6029 83.2898 43.8751 84.0497 43.8704 84.9588C43.8704 85.7732 43.6384 86.5024 43.1744 87.1463C42.7151 87.7855 42.0806 88.2874 41.271 88.652C40.466 89.0166 39.5427 89.1989 38.5011 89.1989ZM4.00354 110.33C3.43062 110.33 2.90742 110.19 2.43394 109.911C1.96045 109.626 1.58167 109.248 1.29758 108.774C1.01822 108.301 0.87854 107.777 0.87854 107.205C0.87854 106.627 1.01822 106.104 1.29758 105.635C1.58167 105.161 1.96045 104.785 2.43394 104.506C2.90742 104.222 3.43062 104.08 4.00354 104.08C4.58119 104.08 5.10439 104.222 5.57314 104.506C6.04663 104.785 6.42305 105.161 6.7024 105.635C6.9865 106.104 7.12854 106.627 7.12854 107.205C7.12854 107.777 6.9865 108.301 6.7024 108.774C6.42305 109.248 6.04663 109.626 5.57314 109.911C5.10439 110.19 4.58119 110.33 4.00354 110.33ZM20.4347 113V98.4545H25.8892C27.0066 98.4545 27.9441 98.6487 28.7017 99.0369C29.464 99.4252 30.0393 99.9697 30.4276 100.67C30.8205 101.366 31.017 102.179 31.017 103.107C31.017 104.039 30.8182 104.849 30.4205 105.536C30.0275 106.217 29.4474 106.745 28.6804 107.119C27.9134 107.489 26.9711 107.673 25.8537 107.673H21.9688V105.486H25.4986C26.152 105.486 26.687 105.396 27.1037 105.216C27.5204 105.031 27.8281 104.764 28.027 104.413C28.2306 104.058 28.3324 103.623 28.3324 103.107C28.3324 102.59 28.2306 102.15 28.027 101.786C27.8234 101.416 27.5133 101.137 27.0966 100.947C26.6799 100.753 26.1425 100.656 25.4844 100.656H23.0696V113H20.4347ZM27.9489 106.409L31.5497 113H28.6094L25.0724 106.409H27.9489ZM38.3714 113H33.4425V98.4545H38.4709C39.915 98.4545 41.1555 98.7457 42.1925 99.3281C43.2341 99.9058 44.0343 100.737 44.593 101.821C45.1518 102.905 45.4311 104.203 45.4311 105.713C45.4311 107.228 45.1494 108.53 44.5859 109.619C44.0272 110.708 43.2199 111.544 42.1641 112.126C41.1129 112.709 39.8487 113 38.3714 113ZM36.0774 110.72H38.2436C39.2569 110.72 40.102 110.536 40.7791 110.166C41.4562 109.792 41.9652 109.236 42.3061 108.497C42.647 107.754 42.8175 106.826 42.8175 105.713C42.8175 104.6 42.647 103.677 42.3061 102.943C41.9652 102.205 41.4609 101.653 40.7933 101.288C40.1304 100.919 39.3066 100.734 38.3217 100.734H36.0774V110.72ZM55.8395 102.453C55.7732 101.833 55.4938 101.35 55.0014 101.004C54.5137 100.659 53.8793 100.486 53.098 100.486C52.5488 100.486 52.0777 100.569 51.6847 100.734C51.2917 100.9 50.991 101.125 50.7827 101.409C50.5743 101.693 50.4678 102.018 50.4631 102.382C50.4631 102.685 50.5317 102.948 50.669 103.17C50.8111 103.393 51.0028 103.582 51.2443 103.739C51.4858 103.89 51.7533 104.018 52.0469 104.122C52.3404 104.226 52.6364 104.314 52.9347 104.385L54.2983 104.726C54.8475 104.854 55.3755 105.027 55.8821 105.244C56.3935 105.462 56.8504 105.737 57.2528 106.068C57.66 106.4 57.982 106.8 58.2188 107.268C58.4555 107.737 58.5739 108.286 58.5739 108.916C58.5739 109.768 58.3561 110.519 57.9205 111.168C57.4848 111.812 56.8551 112.316 56.0312 112.68C55.2121 113.04 54.2202 113.22 53.0554 113.22C51.9238 113.22 50.9413 113.045 50.108 112.695C49.2794 112.344 48.6307 111.833 48.1619 111.161C47.6979 110.488 47.447 109.669 47.4091 108.703H50.0014C50.0393 109.21 50.1955 109.631 50.4702 109.967C50.7448 110.304 51.1023 110.554 51.5426 110.72C51.9877 110.886 52.4848 110.969 53.0341 110.969C53.607 110.969 54.1089 110.884 54.5398 110.713C54.9754 110.538 55.3163 110.296 55.5625 109.989C55.8087 109.676 55.9342 109.312 55.9389 108.895C55.9342 108.516 55.8229 108.204 55.6051 107.957C55.3873 107.706 55.0819 107.498 54.6889 107.332C54.3007 107.162 53.8461 107.01 53.3253 106.878L51.6705 106.452C50.4725 106.144 49.5256 105.678 48.8295 105.053C48.1383 104.423 47.7926 103.587 47.7926 102.545C47.7926 101.688 48.0246 100.938 48.4886 100.294C48.9574 99.6501 49.5942 99.1506 50.3991 98.7955C51.2041 98.4356 52.1155 98.2557 53.1335 98.2557C54.1657 98.2557 55.0701 98.4356 55.8466 98.7955C56.6278 99.1506 57.241 99.6454 57.6861 100.28C58.1312 100.91 58.3608 101.634 58.375 102.453H55.8395Z" fill="#0E0000"/>
</svg>
