<svg width="400" height="400" viewBox="0 0 400 400" fill="none" xmlns="http://www.w3.org/2000/svg">
<path d="M189.086 368.937L181.38 373.221L188.516 377.172L196.793 373.221L189.086 368.937ZM177.5 374.293L177.241 393.573L188.516 400V379.982L177.5 374.293ZM200.673 374.293L190.483 379.314V398.192L200.673 392.836V374.293ZM212.828 314.307L205.068 318.592L212.259 322.542L220.534 318.592L212.828 314.307ZM202.069 319.999V339.28L211.689 342.897L212.001 325.355L202.069 319.999ZM223.587 321.071L214.484 326.092V345.039L223.587 339.683V321.071ZM176.388 341.444L168.681 345.729L175.818 349.679L184.094 345.729L176.388 341.444ZM164.801 346.8L164.542 366.081L175.818 372.508V352.49L164.801 346.8ZM187.974 346.8L177.785 351.821V370.7L187.974 365.344V346.8ZM201.215 340.733L193.509 345.017L200.646 348.968L208.922 345.017L201.215 340.733ZM189.629 346.089L189.371 365.37L200.646 371.796V351.781L189.629 346.089ZM212.801 346.089L202.612 351.11V369.989L212.801 364.633V346.089ZM237.078 314.307L229.372 318.592L236.509 322.542L244.785 318.592L237.078 314.307ZM225.492 319.663L225.234 338.944L236.509 345.371V325.355L225.492 319.663ZM248.665 319.663L238.476 324.685V343.563L248.665 338.207V319.663Z" fill="#F7A80D"/>
<path d="M112.912 106.281C112.912 112.304 113.444 117.186 114.376 120.767C115.44 124.347 116.77 128.254 118.633 132.486C119.298 133.787 119.564 135.09 119.564 136.229C119.564 137.857 118.766 139.484 117.036 141.112L108.655 147.947C107.457 148.924 106.26 149.413 105.196 149.413C103.866 149.413 102.535 148.599 101.205 147.134C99.3425 144.693 97.7461 142.088 96.4159 139.484C95.0857 136.718 93.7548 133.625 92.2915 129.881C81.9148 144.855 68.8773 152.342 53.1791 152.342C42.0041 152.342 33.0907 148.436 26.5719 140.624C20.0533 132.811 16.7273 122.394 16.7273 109.374C16.7273 95.5394 20.7184 84.3087 28.8336 75.8456C36.9487 67.3821 47.7247 63.1504 61.4273 63.1504C65.9505 63.1504 70.6068 63.6386 75.5294 64.4525C80.4516 65.2663 85.5068 66.5683 90.8283 68.0331V56.1518C90.8283 43.7821 88.6995 35.1559 84.5752 30.1104C80.3185 25.0648 73.1345 22.6234 62.8907 22.6234C58.2345 22.6234 53.4452 23.2745 48.5228 24.7393C43.6005 26.2041 38.8113 27.9945 34.155 30.2731C32.0264 31.4124 30.43 32.0634 29.4988 32.389C28.5675 32.7145 27.9023 32.8773 27.3702 32.8773C25.5077 32.8773 24.5765 31.2497 24.5765 27.8318V19.8566C24.5765 17.2524 24.8425 15.2993 25.5077 14.16C26.1729 13.0207 27.3702 11.8814 29.2327 10.7421C33.889 7.81241 39.4764 5.37104 45.9952 3.41793C52.514 1.30207 59.4318 0.325518 66.7487 0.325518C82.5803 0.325518 94.1541 4.72 101.604 13.5089C108.921 22.2979 112.646 35.6441 112.646 53.5476V106.281H112.912ZM58.8996 131.021C63.2898 131.021 67.813 130.044 72.6023 128.091C77.3919 126.138 81.6486 122.558 85.2406 117.674C87.3694 114.582 88.9657 111.164 89.7643 107.258C90.5621 103.352 91.0945 98.6319 91.0945 93.0982V86.2618C87.2363 85.1224 83.1119 84.1463 78.8552 83.495C74.5977 82.8444 70.4737 82.5188 66.3497 82.5188C57.4363 82.5188 50.9175 84.6343 46.5274 89.0287C42.1372 93.4238 40.0086 99.6081 40.0086 107.746C40.0086 115.396 41.605 121.093 44.9309 124.999C48.1238 129.067 52.78 131.021 58.8996 131.021ZM165.727 148.599C163.333 148.599 161.737 148.111 160.672 146.971C159.608 145.994 158.676 143.716 157.878 140.624L126.615 14.8111C125.817 11.5559 125.417 9.44 125.417 8.30069C125.417 5.69655 126.482 4.23173 128.61 4.23173H141.648C144.176 4.23173 145.905 4.72 146.836 5.85931C147.9 6.83586 148.699 9.11451 149.497 12.2069L171.847 119.953L192.601 12.2069C193.266 8.95176 194.064 6.83586 195.128 5.85931C196.193 4.88276 198.055 4.23173 200.449 4.23173H211.092C213.62 4.23173 215.35 4.72 216.414 5.85931C217.478 6.83586 218.409 9.11451 218.942 12.2069L239.961 121.255L262.977 12.2069C263.774 8.95176 264.706 6.83586 265.637 5.85931C266.702 4.88276 268.431 4.23173 270.825 4.23173H283.198C285.326 4.23173 286.523 5.53379 286.523 8.30069C286.523 9.11451 286.39 9.92824 286.258 10.9048C286.125 11.8814 285.859 13.1834 285.326 14.9738L253.265 140.786C252.467 144.041 251.535 146.158 250.471 147.134C249.407 148.111 247.678 148.761 245.416 148.761H233.974C231.447 148.761 229.718 148.273 228.653 147.134C227.589 145.994 226.658 143.879 226.126 140.624L205.505 35.6441L185.017 140.461C184.353 143.716 183.554 145.832 182.49 146.971C181.425 148.111 179.563 148.599 177.169 148.599H165.727ZM336.678 152.993C329.761 152.993 322.843 152.017 316.191 150.064C309.539 148.111 304.35 145.994 300.891 143.553C298.763 142.088 297.299 140.461 296.768 138.996C296.235 137.531 295.969 135.904 295.969 134.439V126.138C295.969 122.72 297.033 121.093 299.029 121.093C299.827 121.093 300.625 121.255 301.424 121.581C302.222 121.906 303.419 122.558 304.75 123.208C309.273 125.649 314.195 127.602 319.384 128.905C324.705 130.207 329.894 130.858 335.215 130.858C343.596 130.858 350.115 129.067 354.638 125.487C359.161 121.906 361.556 116.698 361.556 110.025C361.556 105.467 360.358 101.724 357.964 98.6319C355.569 95.5394 351.046 92.7725 344.527 90.1681L325.237 82.8444C315.526 79.1007 308.342 73.567 303.951 66.2428C299.561 59.0814 297.299 51.1062 297.299 42.6428C297.299 35.8069 298.497 29.7848 300.891 24.5766C303.286 19.3682 306.479 14.8111 310.47 11.2304C314.461 7.4869 318.985 4.72 324.306 2.7669C329.627 0.813794 335.215 0 341.068 0C343.995 0 347.055 0.162759 349.982 0.651034C353.042 1.13931 355.835 1.79034 358.629 2.44138C361.29 3.25518 363.817 4.06897 366.212 5.04552C368.607 6.02207 370.47 6.99863 371.8 7.97518C373.662 9.27725 374.993 10.5793 375.791 12.0441C376.589 13.3462 376.988 15.1366 376.988 17.4152V25.0648C376.988 28.4827 375.923 30.2731 373.929 30.2731C372.864 30.2731 371.134 29.6221 368.873 28.32C361.29 24.0882 352.776 21.9724 343.33 21.9724C335.747 21.9724 329.761 23.4373 325.636 26.5297C321.512 29.6221 319.384 34.3421 319.384 41.0152C319.384 45.5724 320.714 49.4786 323.374 52.5711C326.035 55.6634 330.958 58.7559 338.009 61.5228L356.899 68.847C366.478 72.5904 373.396 77.7986 377.52 84.4719C381.644 91.1451 383.64 98.7943 383.64 107.258C383.64 114.257 382.443 120.604 380.181 126.138C377.786 131.672 374.593 136.554 370.47 140.461C366.345 144.53 361.423 147.459 355.702 149.575C349.715 151.854 343.463 152.993 336.678 152.993Z" fill="#4E84D6"/>
<path fill-rule="evenodd" clip-rule="evenodd" d="M361.634 228.053C317.865 267.604 254.274 288.6 199.596 288.6C122.968 288.6 53.9221 253.932 1.77206 196.315C-2.35205 191.758 1.37295 185.573 6.29527 189.154C62.7024 229.193 132.28 253.444 204.252 253.444C252.811 253.444 306.158 241.074 355.248 215.684C362.565 211.615 368.817 221.543 361.634 228.053Z" fill="#FF9900"/>
<path fill-rule="evenodd" clip-rule="evenodd" d="M379.86 202.663C374.272 193.874 342.876 198.432 328.641 200.547C324.384 201.198 323.718 196.641 327.577 193.223C352.588 171.739 393.695 177.924 398.485 185.085C403.274 192.41 397.154 242.701 373.74 266.79C370.148 270.533 366.689 268.58 368.286 263.698C373.607 247.585 385.447 211.29 379.86 202.663Z" fill="#FF9900"/>
</svg>
