<svg width="401" height="183" viewBox="0 0 401 183" fill="none" xmlns="http://www.w3.org/2000/svg">
<path fill-rule="evenodd" clip-rule="evenodd" d="M342.038 34.7535C354.978 34.7535 364.516 39.642 371.082 47.9813V37.6291H400.126V134.106C400.126 168.231 374.053 182.657 347.598 182.657V155.865H348.604C362.503 155.865 371.082 148.532 371.082 134.106V124.761C364.516 133.1 354.978 137.989 342.038 137.989C313.809 137.989 293.104 114.408 293.104 86.371C293.104 58.3336 313.809 34.7535 342.038 34.7535ZM29.9365 3.74458V47.1666C36.5026 39.4503 46.2318 34.7535 59.5555 34.7535C85.6279 34.7535 107.099 58.1419 107.099 88.3839C107.099 118.626 85.6279 142.014 59.5555 142.014C46.2318 142.014 36.5026 137.365 29.9365 129.601V139.139H0.125854V3.74458H29.9365ZM226.39 34.7535C255.625 34.7535 279.062 58.1419 279.062 88.3839C279.062 118.626 255.578 142.014 226.39 142.014C197.202 142.014 173.67 118.626 173.67 88.3839C173.67 58.1419 197.154 34.7535 226.39 34.7535ZM109.831 0.0541992C134.034 2.45056 155.985 17.4038 155.985 48.9878V139.235H126.174V48.9399C126.174 36.7185 120.088 29.4815 109.831 27.4685V0.0541992ZM53.6125 61.5447C38.7551 61.5447 28.0195 71.897 28.0195 88.3839C28.0195 104.871 38.8031 115.223 53.6125 115.223C68.47 115.223 79.2056 104.871 79.2056 88.3839C79.2056 71.897 68.47 61.5447 53.6125 61.5447ZM226.39 62.4553C212.395 62.4553 201.66 72.8076 201.66 88.3839C201.66 103.96 212.395 114.313 226.39 114.313C240.385 114.313 251.12 104.008 251.12 88.3839C251.12 72.8076 240.385 62.4553 226.39 62.4553ZM347.023 60.8737C331.734 60.8737 320.998 71.226 320.998 86.371C320.998 101.516 331.782 111.868 347.023 111.868C362.311 111.868 373.047 101.516 373.047 86.371C373.047 71.226 362.263 60.8737 347.023 60.8737Z" fill="#03C75A"/>
</svg>
