<svg width="300" height="361" viewBox="0 0 300 361" fill="none" xmlns="http://www.w3.org/2000/svg">
<path d="M149.816 360.088L27.3018 331.166L0 70.7657H300L272.669 331.125L149.816 360.088Z" fill="#264DE4"/>
<path d="M249.271 314.547L272.627 92.0573H150V337.95L249.271 314.547Z" fill="#2965F1"/>
<path d="M62.5889 188.636L65.955 220.573H150V188.636H62.5889Z" fill="#EBEBEB"/>
<path d="M55.8252 123.995L59.2393 155.932H150V123.995H55.8252Z" fill="#EBEBEB"/>
<path d="M150 271.58L149.835 271.617L108.008 262.013L105.334 236.542H67.6331L72.8948 286.688L149.827 304.849L150 304.808V271.58Z" fill="#EBEBEB"/>
<path d="M70.603 0H116.091V16.1758H89.6252V32.3517H116.091V48.5275H70.603V0Z" fill="black"/>
<path d="M125.188 0H170.676V14.0659H144.211V16.8791H170.676V49.2308H125.188V34.4615H151.654V31.6484H125.188V0Z" fill="black"/>
<path d="M179.774 0H225.262V14.0659H198.796V16.8791H225.262V49.2308H179.774V34.4615H206.24V31.6484H179.774V0Z" fill="black"/>
<path d="M237.171 188.636L243.951 123.995H149.87V155.932H202.792L199.374 188.636H149.87V220.573H196.117L191.758 261.993L149.87 271.607V304.833L226.864 286.688L227.429 281.292L236.254 197.212L237.171 188.636Z" fill="white"/>
</svg>
