<svg width="512" height="154" viewBox="0 0 512 154" fill="none" xmlns="http://www.w3.org/2000/svg">
<path d="M140.18 74.93H116.61L107.35 115.9L98.9305 153.36H125.59L130.92 124.46H164.73L170.34 153.36H197L162.34 0.279999H133.72L117.87 69.03H141.3C141.3 69.03 145.51 46.86 147.89 35.92C149.85 46.86 154.2 69.03 154.2 69.03H168.65V74.92H155.75L161.22 104.67H134.42L140.18 74.93Z" fill="#28E4AC"/>
<path d="M260.421 87.7H238.671L232.641 62.16V87.7H206.401V0.150024H231.941L260.421 87.7Z" fill="#28E4AC"/>
<path d="M3.94048 3.51001C7.45048 0.84001 12.3605 0.279999 16.9905 0.279999C35.2305 0.279999 53.3305 0.279999 71.5705 0.279999C76.2005 0.419999 81.2505 0.560012 85.1805 3.09001C88.4105 5.19001 89.8105 8.70001 89.8105 12.07C89.8105 23.72 89.8105 47.15 89.8105 47.15H62.5805V20.07H27.0805V71H0.0104813C0.0104813 71 0.0104813 31.71 0.0104813 12.07C-0.129519 8.84001 1.13048 5.62001 3.94048 3.51001Z" fill="#28E4AC"/>
<path d="M331.42 0.150024H405.78V20.63H358.64V65.11H399.47V84.89H358.64V87.84H331.42V0.150024Z" fill="#28E4AC"/>
<path d="M487.02 0.150009C492.07 0.150009 497.54 0.15 502.03 2.25C506.24 4.49 507.64 8.7 507.64 12.63C507.64 32.13 507.64 51.64 507.64 71.14C507.78 75.49 505.54 80.68 500.34 82.36C494.59 83.9 488.27 83.76 482.38 83.9C482.94 85.16 483.92 87.69 483.92 87.69H456.98L454.45 82.64V68.19H480.41V19.64H446.46V87.55H419.25V0H487.02V0.150009Z" fill="#28E4AC"/>
<path d="M89.6605 71.56C89.6605 71.56 89.9405 119.27 89.6605 143.12C89.6605 149.29 82.2205 153.64 75.4905 153.36C55.9905 153.5 36.4805 153.22 16.9805 153.36C12.7705 153.36 8.28049 153.08 4.77049 150.83C1.26049 148.73 0.140488 144.94 0.000488281 141.43C0.000488281 120.66 0.000488281 78.85 0.000488281 78.85H27.2205V133.57H62.4405V90.64H42.5205V78.71H51.6405V71.41" fill="#28E4AC"/>
<path d="M232.64 93.31H206.54V153.22H232.64V93.31Z" fill="#28E4AC"/>
<path d="M240.5 93.31H281.89L268 139.33H254.39L240.5 93.31Z" fill="#28E4AC"/>
<path d="M331.56 93.31H358.64V133.02H406.62V153.36H331.56V93.31Z" fill="#28E4AC"/>
<path d="M446.33 93.31H419.25V153.22H446.33V93.31Z" fill="#28E4AC"/>
<path d="M458.68 93.31H486.32L512 153.36H483.65L458.68 93.31Z" fill="#28E4AC"/>
<path d="M315.85 93.31H289.75V153.22H315.85V93.31Z" fill="#28E4AC"/>
<path d="M262.25 87.84H283.85L289.891 62.3V87.84H316.121V0.150024H290.591L262.25 87.84Z" fill="#28E4AC"/>
</svg>
