<svg width="179" height="60" viewBox="0 0 179 60" fill="none" xmlns="http://www.w3.org/2000/svg">
<path d="M51.3986 39.5398L0.313232 25.5196V20.3047L51.3986 6.28113V14.3914L19.511 22.9104L51.3986 31.4261V39.5398Z" fill="#E44F26"/>
<path d="M97.8938 40.204H83.2989L112.342 0H127.039L97.8938 40.204Z" fill="#E44F26"/>
<path d="M127.601 39.5296V31.4227L159.713 22.9105L127.601 14.3982V6.28796L178.687 20.2502V25.5707L127.601 39.5296Z" fill="#E44F26"/>
<path d="M67.9753 59.4936L57.3247 53.8221L46.6679 59.4901L35.9406 53.8153L25.2326 59.4867L14.5374 53.8153L7.67143 57.4532L0 54.7725L14.5374 47.0573L25.2326 52.7356L35.9406 47.0641L46.6487 52.7356L57.3247 47.0539L67.9944 52.7287L78.6513 47.0641L89.3849 52.739L100.087 47.0573L110.795 52.739L121.535 47.0675L132.243 52.739L142.983 47.0641L153.678 52.739L164.412 47.071L179 54.7623L171.341 57.46L164.412 53.8051L153.652 59.4833L142.97 53.8153L132.236 59.4833L121.522 53.8085L110.775 59.4833L100.087 53.8153L89.3913 59.4833L78.6705 53.8153L67.9753 59.4936Z" fill="#C1272D"/>
</svg>
