<svg width="300" height="361" viewBox="0 0 300 361" fill="none" xmlns="http://www.w3.org/2000/svg">
<path d="M300 70.7657L272.669 331.125L149.816 360.088L27.3018 331.166L0 70.7657H300Z" fill="#E44D26"/>
<path d="M150 337.95L249.271 314.547L272.627 92.0573H150V337.95Z" fill="#F16529"/>
<path d="M96.8702 155.932H150V123.995H55.8252L56.7242 132.563L65.9549 220.573H150V188.636H100.302L96.8702 155.932Z" fill="#EBEBEB"/>
<path d="M105.334 236.542H67.6331L72.8948 286.688L149.827 304.849L150 304.808V271.58L149.835 271.617L108.008 262.013L105.334 236.542Z" fill="#EBEBEB"/>
<path d="M27.9122 0H46.9981V16.0352H64.4571V0H83.5438V48.5584H64.458V32.2982H46.9989V48.5584H27.913L27.9122 0Z" fill="black"/>
<path d="M108.642 16.1027H91.84V0H144.54V16.1027H127.73V48.5584H108.643L108.642 16.1027Z" fill="black"/>
<path d="M152.904 0H172.805L185.047 17.062L197.277 0H217.186V48.5584H198.178V24.4902L185.047 41.7554H184.719L171.579 24.4902V48.5584H152.904V0Z" fill="black"/>
<path d="M226.684 0H245.776V32.5078H272.616V48.5584H226.684V0Z" fill="black"/>
<path d="M149.87 220.573H196.117L191.758 261.993L149.87 271.607V304.833L226.864 286.688L227.429 281.292L236.254 197.212L237.171 188.636H149.87V220.573Z" fill="white"/>
<path d="M149.87 155.854V155.932H240.588L241.341 148.754L243.053 132.563L243.951 123.995H149.87V155.854Z" fill="white"/>
</svg>
