<svg width="301" height="345" viewBox="0 0 301 345" fill="none" xmlns="http://www.w3.org/2000/svg">
<g clip-path="url(#clip0_73_49)">
<path d="M25.8702 308.325L0.75 1.32385L300.75 1.94079L274.188 308.325L151.882 343.74L25.8702 308.325Z" fill="#E9CA32"/>
<path d="M151.882 314.091V30.5618L275.424 30.9731L253.394 284.645L151.882 314.091Z" fill="#FFDE25"/>
<path d="M138.653 64.2271H105.992V252.937L80.5887 248.098V222.695L50.3468 217.856V274.711L138.653 297.695V64.2271ZM163.154 64.2271H253.573L247.524 100.396H197.671V159.751H247.524L241.476 279.55L163.154 297.695V260.195L216.073 242.05L219.128 192.453L163.154 200.558V64.2271Z" fill="white"/>
</g>
<defs>
<clipPath id="clip0_73_49">
<rect width="300" height="343.564" fill="white" transform="translate(0.75 0.75)"/>
</clipPath>
</defs>
</svg>
