<svg width="414" height="474" viewBox="0 0 414 474" fill="none" xmlns="http://www.w3.org/2000/svg">
<g clip-path="url(#clip0_73_49)">
<path d="M35.3321 424.179L0.75 1.54004L413.75 2.38935L377.183 424.179L208.809 472.933L35.3321 424.179Z" fill="#E9CA32"/>
<path d="M208.809 432.116V41.7909L378.885 42.3571L348.556 391.579L208.809 432.116Z" fill="#FFDE25"/>
<path d="M190.597 88.1368H145.633V347.927L110.661 341.266V306.294L69.0282 299.633V377.903L190.597 409.544V88.1368ZM224.326 88.1368H348.802L340.476 137.93H271.845V219.641H340.476L332.149 384.564L224.326 409.544V357.919L297.177 332.939L301.384 264.661L224.326 275.819V88.1368Z" fill="white"/>
</g>
<defs>
<clipPath id="clip0_73_49">
<rect width="413" height="472.973" fill="white" transform="translate(0.75 0.75)"/>
</clipPath>
</defs>
</svg>
