<svg width="251" height="288" viewBox="0 0 251 288" fill="none" xmlns="http://www.w3.org/2000/svg">
<g clip-path="url(#clip0_73_49)">
<path d="M21.6835 257.063L0.75 1.22821L250.75 1.74232L228.615 257.063L126.694 286.575L21.6835 257.063Z" fill="#E9CA32"/>
<path d="M126.694 261.867V25.5931L229.645 25.9359L211.286 237.329L126.694 261.867Z" fill="#FFDE25"/>
<path d="M115.669 53.6476H88.4516V210.906L67.2822 206.873V185.704L42.0806 181.672V229.051L115.669 248.204V53.6476ZM136.087 53.6476H211.435L206.395 83.7887H164.851V133.25H206.395L201.355 233.083L136.087 248.204V216.954L180.185 201.833L182.732 160.502L136.087 167.256V53.6476Z" fill="white"/>
</g>
<defs>
<clipPath id="clip0_73_49">
<rect width="250" height="286.303" fill="white" transform="translate(0.75 0.75)"/>
</clipPath>
</defs>
</svg>
