<svg width="410" height="53" viewBox="0 0 410 53" fill="none" xmlns="http://www.w3.org/2000/svg">
<path d="M1.32102 21V3.54545H5.53977V10.5511H12.4176V3.54545H16.6278V21H12.4176V13.9858H5.53977V21H1.32102ZM18.7031 6.97159V3.54545H33.456V6.97159H28.1634V21H24.0043V6.97159H18.7031ZM35.5163 3.54545H40.7408L45.1726 14.3523H45.3771L49.8089 3.54545H55.0334V21H50.9254V10.2784H50.7805L46.5874 20.8892H43.9624L39.7692 10.2188H39.6243V21H35.5163V3.54545ZM57.6648 21V3.54545H61.8835V17.5739H69.1449V21H57.6648ZM79.4084 2.72727L73.7834 23.625H70.2294L75.8544 2.72727H79.4084ZM96.8054 9.86932H92.544C92.4872 9.43182 92.3707 9.03693 92.1946 8.68466C92.0185 8.33239 91.7855 8.03125 91.4957 7.78125C91.206 7.53125 90.8622 7.34091 90.4645 7.21023C90.0724 7.07386 89.6378 7.00568 89.1605 7.00568C88.3139 7.00568 87.5838 7.21307 86.9702 7.62784C86.3622 8.04261 85.8935 8.64205 85.5639 9.42614C85.2401 10.2102 85.0781 11.1591 85.0781 12.2727C85.0781 13.4318 85.2429 14.4034 85.5724 15.1875C85.9077 15.9659 86.3764 16.554 86.9787 16.9517C87.5866 17.3437 88.3054 17.5398 89.1349 17.5398C89.6009 17.5398 90.0241 17.4801 90.4048 17.3608C90.7912 17.2415 91.1293 17.0682 91.419 16.8409C91.7145 16.608 91.956 16.3267 92.1435 15.9972C92.3366 15.6619 92.4702 15.2841 92.544 14.8636L96.8054 14.8892C96.7315 15.6619 96.5071 16.4233 96.1321 17.1733C95.7628 17.9233 95.2543 18.608 94.6065 19.2273C93.9588 19.8409 93.169 20.3295 92.2372 20.6932C91.3111 21.0568 90.2486 21.2386 89.0497 21.2386C87.4702 21.2386 86.0554 20.892 84.8054 20.1989C83.5611 19.5 82.5781 18.483 81.8565 17.1477C81.1349 15.8125 80.7741 14.1875 80.7741 12.2727C80.7741 10.3523 81.1406 8.72443 81.8736 7.3892C82.6065 6.05398 83.598 5.03977 84.848 4.34659C86.098 3.65341 87.4986 3.30682 89.0497 3.30682C90.1065 3.30682 91.0838 3.45455 91.9815 3.75C92.8793 4.03977 93.669 4.46591 94.3509 5.02841C95.0327 5.58523 95.5866 6.26989 96.0128 7.08239C96.4389 7.89489 96.7031 8.82386 96.8054 9.86932ZM108.654 8.77841C108.597 8.15341 108.344 7.66761 107.896 7.32102C107.452 6.96875 106.819 6.79261 105.995 6.79261C105.45 6.79261 104.995 6.86364 104.631 7.00568C104.268 7.14773 103.995 7.34375 103.813 7.59375C103.631 7.83807 103.538 8.11932 103.532 8.4375C103.521 8.69886 103.572 8.92898 103.685 9.12784C103.805 9.3267 103.975 9.50284 104.197 9.65625C104.424 9.80398 104.697 9.93466 105.015 10.0483C105.333 10.1619 105.691 10.2614 106.089 10.3466L107.589 10.6875C108.452 10.875 109.214 11.125 109.873 11.4375C110.538 11.75 111.094 12.1222 111.543 12.554C111.998 12.9858 112.342 13.483 112.575 14.0455C112.808 14.608 112.927 15.2386 112.933 15.9375C112.927 17.0398 112.648 17.9858 112.097 18.7756C111.546 19.5653 110.754 20.1705 109.719 20.5909C108.691 21.0114 107.45 21.2216 105.995 21.2216C104.535 21.2216 103.262 21.0028 102.177 20.5653C101.092 20.1278 100.248 19.4631 99.6456 18.571C99.0433 17.679 98.7337 16.5511 98.7166 15.1875H102.756C102.79 15.75 102.941 16.2188 103.208 16.5938C103.475 16.9688 103.842 17.2528 104.308 17.446C104.779 17.6392 105.325 17.7358 105.944 17.7358C106.512 17.7358 106.995 17.6591 107.393 17.5057C107.796 17.3523 108.106 17.1392 108.322 16.8665C108.538 16.5937 108.648 16.2812 108.654 15.929C108.648 15.5994 108.546 15.3182 108.347 15.0852C108.148 14.8466 107.842 14.642 107.427 14.4716C107.018 14.2955 106.495 14.1335 105.859 13.9858L104.035 13.5597C102.523 13.2131 101.333 12.6534 100.464 11.8807C99.5945 11.1023 99.1626 10.0511 99.1683 8.72727C99.1626 7.64773 99.4524 6.7017 100.038 5.8892C100.623 5.0767 101.433 4.44318 102.467 3.98864C103.501 3.53409 104.68 3.30682 106.004 3.30682C107.356 3.30682 108.529 3.53693 109.523 3.99716C110.523 4.4517 111.299 5.09091 111.85 5.91477C112.401 6.73864 112.683 7.69318 112.694 8.77841H108.654ZM124.498 8.77841C124.441 8.15341 124.188 7.66761 123.739 7.32102C123.296 6.96875 122.663 6.79261 121.839 6.79261C121.293 6.79261 120.839 6.86364 120.475 7.00568C120.112 7.14773 119.839 7.34375 119.657 7.59375C119.475 7.83807 119.381 8.11932 119.376 8.4375C119.364 8.69886 119.415 8.92898 119.529 9.12784C119.648 9.3267 119.819 9.50284 120.04 9.65625C120.268 9.80398 120.54 9.93466 120.859 10.0483C121.177 10.1619 121.535 10.2614 121.933 10.3466L123.433 10.6875C124.296 10.875 125.058 11.125 125.717 11.4375C126.381 11.75 126.938 12.1222 127.387 12.554C127.842 12.9858 128.185 13.483 128.418 14.0455C128.651 14.608 128.771 15.2386 128.776 15.9375C128.771 17.0398 128.492 17.9858 127.941 18.7756C127.39 19.5653 126.597 20.1705 125.563 20.5909C124.535 21.0114 123.293 21.2216 121.839 21.2216C120.379 21.2216 119.106 21.0028 118.021 20.5653C116.935 20.1278 116.092 19.4631 115.489 18.571C114.887 17.679 114.577 16.5511 114.56 15.1875H118.6C118.634 15.75 118.785 16.2188 119.052 16.5938C119.319 16.9688 119.685 17.2528 120.151 17.446C120.623 17.6392 121.168 17.7358 121.788 17.7358C122.356 17.7358 122.839 17.6591 123.237 17.5057C123.64 17.3523 123.95 17.1392 124.165 16.8665C124.381 16.5937 124.492 16.2812 124.498 15.929C124.492 15.5994 124.39 15.3182 124.191 15.0852C123.992 14.8466 123.685 14.642 123.271 14.4716C122.862 14.2955 122.339 14.1335 121.702 13.9858L119.879 13.5597C118.367 13.2131 117.177 12.6534 116.308 11.8807C115.438 11.1023 115.006 10.0511 115.012 8.72727C115.006 7.64773 115.296 6.7017 115.881 5.8892C116.467 5.0767 117.276 4.44318 118.31 3.98864C119.344 3.53409 120.523 3.30682 121.847 3.30682C123.2 3.30682 124.373 3.53693 125.367 3.99716C126.367 4.4517 127.143 5.09091 127.694 5.91477C128.245 6.73864 128.526 7.69318 128.538 8.77841H124.498ZM138.987 2.72727L133.362 23.625H129.808L135.433 2.72727H138.987ZM146.131 3.54545H150.29V15.6136C150.284 16.7443 150.014 17.733 149.48 18.5795C148.946 19.4205 148.207 20.0739 147.264 20.5398C146.327 21.0057 145.241 21.2386 144.009 21.2386C142.918 21.2386 141.926 21.0483 141.034 20.6676C140.148 20.2869 139.44 19.696 138.912 18.8949C138.389 18.0937 138.131 17.0682 138.136 15.8182H142.338C142.355 16.267 142.44 16.6506 142.594 16.9688C142.753 17.2812 142.972 17.517 143.25 17.6761C143.528 17.8352 143.861 17.9148 144.247 17.9148C144.651 17.9148 144.991 17.8295 145.27 17.6591C145.548 17.483 145.759 17.2244 145.901 16.8835C146.048 16.5426 146.125 16.1193 146.131 15.6136V3.54545ZM156.714 21H152.18L158.069 3.54545H163.685L169.575 21H165.04L160.941 7.94318H160.805L156.714 21ZM156.109 14.1307H165.586V17.3352H156.109V14.1307ZM173.073 3.54545L176.977 16.3295H177.121L181.025 3.54545H185.746L179.857 21H174.241L168.352 3.54545H173.073ZM188.8 21H184.266L190.155 3.54545H195.771L201.661 21H197.126L193.027 7.94318H192.891L188.8 21ZM188.195 14.1307H197.672V17.3352H188.195V14.1307ZM218.131 8.77841C218.074 8.15341 217.821 7.66761 217.372 7.32102C216.929 6.96875 216.295 6.79261 215.472 6.79261C214.926 6.79261 214.472 6.86364 214.108 7.00568C213.744 7.14773 213.472 7.34375 213.29 7.59375C213.108 7.83807 213.014 8.11932 213.009 8.4375C212.997 8.69886 213.048 8.92898 213.162 9.12784C213.281 9.3267 213.452 9.50284 213.673 9.65625C213.901 9.80398 214.173 9.93466 214.491 10.0483C214.81 10.1619 215.168 10.2614 215.565 10.3466L217.065 10.6875C217.929 10.875 218.69 11.125 219.349 11.4375C220.014 11.75 220.571 12.1222 221.02 12.554C221.474 12.9858 221.818 13.483 222.051 14.0455C222.284 14.608 222.403 15.2386 222.409 15.9375C222.403 17.0398 222.125 17.9858 221.574 18.7756C221.023 19.5653 220.23 20.1705 219.196 20.5909C218.168 21.0114 216.926 21.2216 215.472 21.2216C214.011 21.2216 212.739 21.0028 211.653 20.5653C210.568 20.1278 209.724 19.4631 209.122 18.571C208.52 17.679 208.21 16.5511 208.193 15.1875H212.233C212.267 15.75 212.418 16.2188 212.685 16.5938C212.952 16.9688 213.318 17.2528 213.784 17.446C214.256 17.6392 214.801 17.7358 215.42 17.7358C215.989 17.7358 216.472 17.6591 216.869 17.5057C217.273 17.3523 217.582 17.1392 217.798 16.8665C218.014 16.5937 218.125 16.2812 218.131 15.929C218.125 15.5994 218.023 15.3182 217.824 15.0852C217.625 14.8466 217.318 14.642 216.903 14.4716C216.494 14.2955 215.972 14.1335 215.335 13.9858L213.511 13.5597C212 13.2131 210.81 12.6534 209.94 11.8807C209.071 11.1023 208.639 10.0511 208.645 8.72727C208.639 7.64773 208.929 6.7017 209.514 5.8892C210.099 5.0767 210.909 4.44318 211.943 3.98864C212.977 3.53409 214.156 3.30682 215.48 3.30682C216.832 3.30682 218.006 3.53693 219 3.99716C220 4.4517 220.776 5.09091 221.327 5.91477C221.878 6.73864 222.159 7.69318 222.17 8.77841H218.131ZM240.384 9.86932H236.122C236.065 9.43182 235.949 9.03693 235.773 8.68466C235.597 8.33239 235.364 8.03125 235.074 7.78125C234.784 7.53125 234.44 7.34091 234.043 7.21023C233.651 7.07386 233.216 7.00568 232.739 7.00568C231.892 7.00568 231.162 7.21307 230.548 7.62784C229.94 8.04261 229.472 8.64205 229.142 9.42614C228.818 10.2102 228.656 11.1591 228.656 12.2727C228.656 13.4318 228.821 14.4034 229.151 15.1875C229.486 15.9659 229.955 16.554 230.557 16.9517C231.165 17.3437 231.884 17.5398 232.713 17.5398C233.179 17.5398 233.602 17.4801 233.983 17.3608C234.369 17.2415 234.707 17.0682 234.997 16.8409C235.293 16.608 235.534 16.3267 235.722 15.9972C235.915 15.6619 236.048 15.2841 236.122 14.8636L240.384 14.8892C240.31 15.6619 240.085 16.4233 239.71 17.1733C239.341 17.9233 238.832 18.608 238.185 19.2273C237.537 19.8409 236.747 20.3295 235.815 20.6932C234.889 21.0568 233.827 21.2386 232.628 21.2386C231.048 21.2386 229.634 20.892 228.384 20.1989C227.139 19.5 226.156 18.483 225.435 17.1477C224.713 15.8125 224.352 14.1875 224.352 12.2727C224.352 10.3523 224.719 8.72443 225.452 7.3892C226.185 6.05398 227.176 5.03977 228.426 4.34659C229.676 3.65341 231.077 3.30682 232.628 3.30682C233.685 3.30682 234.662 3.45455 235.56 3.75C236.457 4.03977 237.247 4.46591 237.929 5.02841C238.611 5.58523 239.165 6.26989 239.591 7.08239C240.017 7.89489 240.281 8.82386 240.384 9.86932ZM242.798 21V3.54545H250.008C251.315 3.54545 252.442 3.78125 253.391 4.25284C254.346 4.71875 255.082 5.3892 255.599 6.2642C256.116 7.13352 256.374 8.16477 256.374 9.35795C256.374 10.5682 256.11 11.5966 255.582 12.4432C255.053 13.2841 254.303 13.9261 253.332 14.3693C252.36 14.8068 251.21 15.0256 249.88 15.0256H245.32V11.7017H249.096C249.732 11.7017 250.263 11.6193 250.69 11.4545C251.121 11.2841 251.448 11.0284 251.67 10.6875C251.891 10.3409 252.002 9.89773 252.002 9.35795C252.002 8.81818 251.891 8.37216 251.67 8.01989C251.448 7.66193 251.121 7.39489 250.69 7.21875C250.258 7.03693 249.727 6.94602 249.096 6.94602H247.016V21H242.798ZM252.624 13.0227L256.971 21H252.369L248.107 13.0227H252.624ZM262.907 3.54545V21H258.688V3.54545H262.907ZM265.555 21V3.54545H272.766C274.072 3.54545 275.2 3.80114 276.149 4.3125C277.104 4.81818 277.839 5.52557 278.357 6.43466C278.874 7.33807 279.132 8.3892 279.132 9.58807C279.132 10.7926 278.868 11.8466 278.339 12.75C277.817 13.6477 277.07 14.3437 276.098 14.8381C275.126 15.3324 273.973 15.5795 272.638 15.5795H268.189V12.2557H271.854C272.49 12.2557 273.021 12.1449 273.447 11.9233C273.879 11.7017 274.206 11.392 274.428 10.9943C274.649 10.5909 274.76 10.1222 274.76 9.58807C274.76 9.04829 274.649 8.58239 274.428 8.19034C274.206 7.79261 273.879 7.4858 273.447 7.26989C273.016 7.05398 272.484 6.94602 271.854 6.94602H269.774V21H265.555ZM280.641 6.97159V3.54545H295.393V6.97159H290.101V21H285.942V6.97159H280.641ZM297.093 10.872H317.229V13.2H297.093V10.872ZM299.349 14.304H314.829V19.584H302.565V21.48H299.397V17.568H311.685V16.464H299.349V14.304ZM299.397 20.808H315.453V22.968H299.397V20.808ZM299.565 1.296H314.781V6.528H302.757V8.352H299.589V4.536H311.637V3.432H299.565V1.296ZM299.589 7.68H315.189V9.84H299.589V7.68ZM339.567 0.887999H342.783V23.184H339.567V0.887999ZM330.807 2.448C334.167 2.448 336.639 5.52 336.639 10.368C336.639 15.264 334.167 18.336 330.807 18.336C327.447 18.336 324.975 15.264 324.975 10.368C324.975 5.52 327.447 2.448 330.807 2.448ZM330.807 5.352C329.151 5.352 328.023 7.104 328.023 10.368C328.023 13.68 329.151 15.456 330.807 15.456C332.463 15.456 333.567 13.68 333.567 10.368C333.567 7.104 332.463 5.352 330.807 5.352ZM350.917 8.352H354.109V12.432H350.917V8.352ZM358.741 8.352H361.909V12.432H358.741V8.352ZM346.405 11.448H366.493V13.968H346.405V11.448ZM356.413 15.096C361.213 15.096 364.117 16.536 364.117 19.104C364.117 21.696 361.213 23.136 356.413 23.136C351.589 23.136 348.685 21.696 348.685 19.104C348.685 16.536 351.589 15.096 356.413 15.096ZM356.413 17.496C353.437 17.496 351.925 18 351.925 19.104C351.925 20.232 353.437 20.736 356.413 20.736C359.389 20.736 360.901 20.232 360.901 19.104C360.901 18 359.389 17.496 356.413 17.496ZM356.461 1.224C361.357 1.224 364.501 2.856 364.501 5.52C364.501 8.16 361.357 9.744 356.461 9.744C351.541 9.744 348.421 8.16 348.421 5.52C348.421 2.856 351.541 1.224 356.461 1.224ZM356.461 3.672C353.413 3.672 351.709 4.272 351.709 5.52C351.709 6.744 353.413 7.344 356.461 7.344C359.509 7.344 361.213 6.744 361.213 5.52C361.213 4.272 359.509 3.672 356.461 3.672ZM382.739 0.912H385.907V23.136H382.739V0.912ZM385.187 9.576H389.123V12.24H385.187V9.576ZM368.387 4.2H381.323V6.744H368.387V4.2ZM374.891 7.992C378.131 7.992 380.531 10.2 380.531 13.296C380.531 16.392 378.131 18.6 374.891 18.6C371.651 18.6 369.251 16.392 369.251 13.296C369.251 10.2 371.651 7.992 374.891 7.992ZM374.891 10.584C373.379 10.584 372.299 11.592 372.299 13.296C372.299 15 373.379 16.008 374.891 16.008C376.403 16.008 377.483 15 377.483 13.296C377.483 11.592 376.403 10.584 374.891 10.584ZM373.283 1.272H376.475V5.16H373.283V1.272ZM400.498 5.448H406.546V8.016H400.498V5.448ZM400.498 12.336H406.546V14.904H400.498V12.336ZM396.658 2.448C399.97 2.448 402.394 5.52 402.394 10.368C402.394 15.264 399.97 18.336 396.658 18.336C393.322 18.336 390.922 15.264 390.922 10.368C390.922 5.52 393.322 2.448 396.658 2.448ZM396.658 5.352C395.05 5.352 393.946 7.104 393.946 10.368C393.946 13.68 395.05 15.456 396.658 15.456C398.29 15.456 399.37 13.68 399.37 10.368C399.37 7.104 398.29 5.352 396.658 5.352ZM406.042 0.887999H409.21V23.184H406.042V0.887999ZM17.016 29.912H20.04V52.136H17.016V29.912ZM9.696 37.496H13.368V40.088H9.696V37.496ZM12.528 30.272H15.504V51.128H12.528V30.272ZM4.896 33.536H7.296V35.816C7.296 40.808 5.928 45.776 2.4 47.984L0.504 45.632C3.768 43.592 4.896 39.608 4.896 35.816V33.536ZM5.616 33.536H7.992V35.816C7.992 39.512 9.096 43.256 12.312 45.128L10.44 47.456C6.912 45.368 5.616 40.712 5.616 35.816V33.536ZM1.344 32.144H11.256V34.712H1.344V32.144ZM27.9821 32.192H30.5981V33.584C30.5981 37.784 28.6061 41.552 24.3581 42.92L22.7021 40.448C26.4221 39.248 27.9821 36.368 27.9821 33.584V32.192ZM28.6301 32.192H31.2221V33.584C31.2221 36.2 32.7341 38.912 36.3341 40.064L34.7021 42.536C30.5501 41.192 28.6301 37.568 28.6301 33.584V32.192ZM23.5661 31.208H35.5661V33.752H23.5661V31.208ZM37.3421 29.912H40.5341V43.304H37.3421V29.912ZM39.6461 35.288H43.4861V37.904H39.6461V35.288ZM25.7021 44.264H40.5341V52.136H37.3421V46.832H25.7021V44.264ZM59.4203 29.936H62.6123V46.544H59.4203V29.936ZM61.7003 36.704H65.5643V39.32H61.7003V36.704ZM45.1163 32.24H58.1963V34.736H45.1163V32.24ZM51.6683 35.528C54.8603 35.528 57.1163 37.28 57.1163 39.824C57.1163 42.368 54.8603 44.096 51.6683 44.096C48.4523 44.096 46.1963 42.368 46.1963 39.824C46.1963 37.28 48.4523 35.528 51.6683 35.528ZM51.6683 37.952C50.2523 37.952 49.2683 38.624 49.2683 39.824C49.2683 41.024 50.2523 41.672 51.6683 41.672C53.0843 41.672 54.0683 41.024 54.0683 39.824C54.0683 38.624 53.0843 37.952 51.6683 37.952ZM50.0603 29.888H53.2523V33.464H50.0603V29.888ZM48.2843 49.208H63.4043V51.752H48.2843V49.208ZM48.2843 45.296H51.4763V50.312H48.2843V45.296ZM88.5986 29.912H91.6466V52.136H88.5986V29.912ZM82.0946 38H85.0706V40.808H82.0946V38ZM84.1826 30.344H87.1826V51.104H84.1826V30.344ZM72.5186 32.408H82.6226V34.952H72.5186V32.408ZM72.4706 47.096L72.1346 44.504C74.9186 44.504 79.5986 44.432 82.9586 43.976L83.1746 46.28C79.7186 47.024 75.2066 47.096 72.4706 47.096ZM73.8866 34.04H76.7426V45.176H73.8866V34.04ZM78.3506 34.04H81.2306V45.176H78.3506V34.04ZM109.669 29.888H112.885V52.184H109.669V29.888ZM100.909 31.448C104.269 31.448 106.741 34.52 106.741 39.368C106.741 44.264 104.269 47.336 100.909 47.336C97.5488 47.336 95.0768 44.264 95.0768 39.368C95.0768 34.52 97.5488 31.448 100.909 31.448ZM100.909 34.352C99.2528 34.352 98.1248 36.104 98.1248 39.368C98.1248 42.68 99.2528 44.456 100.909 44.456C102.565 44.456 103.669 42.68 103.669 39.368C103.669 36.104 102.565 34.352 100.909 34.352ZM121.859 33.416H124.403V35.912C124.403 41.048 122.315 46.064 118.139 47.96L116.339 45.44C120.059 43.784 121.859 39.68 121.859 35.912V33.416ZM122.579 33.416H125.099V35.912C125.099 39.512 126.875 43.352 130.595 44.888L128.867 47.408C124.643 45.584 122.579 40.856 122.579 35.912V33.416ZM117.227 32.048H129.683V34.664H117.227V32.048ZM131.747 29.912H134.963V52.136H131.747V29.912ZM159.005 29.912H162.221V41.864H159.005V29.912ZM147.437 42.824H150.581V44.888H159.053V42.824H162.221V51.896H147.437V42.824ZM150.581 47.336V49.352H159.053V47.336H150.581ZM150.125 30.824C153.581 30.824 156.149 33.008 156.149 36.08C156.149 39.152 153.581 41.336 150.125 41.336C146.669 41.336 144.077 39.152 144.077 36.08C144.077 33.008 146.669 30.824 150.125 30.824ZM150.125 33.464C148.421 33.464 147.197 34.448 147.197 36.08C147.197 37.736 148.421 38.696 150.125 38.696C151.805 38.696 153.029 37.736 153.029 36.08C153.029 34.448 151.805 33.464 150.125 33.464ZM181.203 29.912H184.395V52.136H181.203V29.912ZM166.995 32.024H170.163V45.824H166.995V32.024ZM166.995 43.952H168.963C172.203 43.952 175.803 43.712 179.475 42.992L179.835 45.632C176.019 46.424 172.347 46.664 168.963 46.664H166.995V43.952ZM202.106 29.888H205.322V52.184H202.106V29.888ZM204.602 38.12H208.538V40.736H204.602V38.12ZM188.762 44.192H190.634C194.378 44.192 197.33 44.072 200.594 43.496L200.906 46.136C197.546 46.736 194.498 46.832 190.634 46.832H188.762V44.192ZM188.762 31.952H199.13V34.52H191.93V45.464H188.762V31.952Z" fill="black"/>
</svg>
